<svg width="128" height="128" viewBox="0 0 128 128" fill="none" xmlns="http://www.w3.org/2000/svg">
<rect x="8" y="37" width="107" height="53" fill="#F15072"/>
<path fill-rule="evenodd" clip-rule="evenodd" d="M4 0C1.79086 0 0 1.79086 0 4V124C0 126.209 1.79086 128 4 128H124C126.209 128 128 126.209 128 124V4C128 1.79086 126.209 0 124 0H4ZM84.3912 63.9988C84.3912 71.487 80.8298 78.1435 75.3085 82.3667C78.4892 84.251 82.2014 85.3327 86.1663 85.3327C97.9484 85.3327 107.5 75.7814 107.5 63.9994C107.5 52.2173 97.9484 42.666 86.1663 42.666C82.2018 42.666 78.4898 43.7475 75.3093 45.6315C80.8302 49.8548 84.3912 56.5109 84.3912 63.9988ZM36.8254 77.7662C44.2471 77.7662 50.2635 71.603 50.2635 64.0003C50.2635 56.3976 44.2471 50.2344 36.8254 50.2344C29.4037 50.2344 23.3873 56.3976 23.3873 64.0003C23.3873 71.603 29.4037 77.7662 36.8254 77.7662ZM36.8254 85.3337C48.3269 85.3337 57.6508 75.7824 57.6508 64.0003C57.6508 52.2183 48.3269 42.667 36.8254 42.667C25.3238 42.667 16 52.2183 16 64.0003C16 75.7824 25.3238 85.3337 36.8254 85.3337ZM59.428 63.9978C59.428 71.4946 55.9286 78.1806 50.4917 82.4086C53.6566 84.267 57.3432 85.3327 61.2786 85.3327C73.0607 85.3327 82.612 75.7814 82.612 63.9994C82.612 52.2173 73.0607 42.666 61.2786 42.666C57.3441 42.666 53.6583 43.7312 50.4939 45.5888C55.9295 49.8169 59.428 56.502 59.428 63.9978Z" fill="#313245"/>
</svg>
