<svg width="41" height="40" viewBox="0 0 41 40" fill="none" xmlns="http://www.w3.org/2000/svg">
<path fill-rule="evenodd" clip-rule="evenodd" d="M5.80014 0C2.11147 0 0.5 1.5988 0.5 5.33333V34.6667C0.5 38.2546 2.15638 40 5.80014 40H34.9509C38.6237 40 40.2511 38.3217 40.2511 34.6667V20V5.33333C40.2511 1.66328 38.5933 0 34.9509 0H5.80014ZM9.61977 26.3973L11.4071 8.19874C11.5721 6.51804 10.2601 5.06087 8.5817 5.06087C6.54113 5.06087 5.00311 7.25162 5.56756 9.33737C6.32321 12.1297 7.05409 15.8329 7.1008 19.8269C7.12801 22.1528 6.89382 24.4032 6.5413 26.4418C6.18692 28.4913 6.74291 30.6292 7.91183 32.2521C9.078 33.8711 10.8225 34.939 12.8345 34.939H13.8722C16.4179 34.939 18.4816 32.8623 18.4816 30.3007V28.366C18.4816 27.2024 17.6418 26.2111 16.5001 26.027L15.0877 25.7993C14.5066 25.7056 13.9681 26.1263 13.9142 26.716L13.9058 26.8085C13.804 27.9234 12.8747 28.7766 11.7621 28.7766C10.4895 28.7766 9.49461 27.6717 9.61977 26.3973ZM18.4816 20.6202V13.0906C18.4816 12.0593 19.3125 11.2232 20.3374 11.2232C21.3623 11.2232 22.1931 12.0593 22.1931 13.0906V29.3368C22.1931 32.4308 24.6857 34.939 27.7604 34.939H27.9968C31.9921 34.939 34.9722 30.6591 34.2387 26.5283C33.873 24.4687 33.6186 22.1901 33.6186 19.8342C33.6186 15.7318 34.3901 11.9363 35.1823 9.11807C35.7362 7.14741 34.2829 5.06087 32.3573 5.06087C30.8068 5.06087 29.5853 6.39061 29.707 7.94602L31.1527 26.4221C31.2521 27.6914 30.2552 28.7766 28.9899 28.7766C27.8686 28.7766 26.932 27.9168 26.8294 26.7932L25.2537 9.53259C25.0224 6.99939 22.9109 5.06087 20.3828 5.06087C17.844 5.06087 15.7272 7.01542 15.5095 9.56072L14.4642 20.4466C14.3728 21.5149 15.1249 22.4697 16.1794 22.6241C17.3934 22.8019 18.4816 21.8547 18.4816 20.6202Z" fill="#171717"/>
</svg>
