<?xml version="1.0" standalone="no"?>
<!DOCTYPE svg PUBLIC "-//W3C//DTD SVG 20010904//EN"
 "http://www.w3.org/TR/2001/REC-SVG-20010904/DTD/svg10.dtd">
<svg version="1.0" xmlns="http://www.w3.org/2000/svg"
 width="700.000000pt" height="700.000000pt" viewBox="0 0 700.000000 700.000000"
 preserveAspectRatio="xMidYMid meet">
<metadata>
Created by potrace 1.14, written by Peter Selinger 2001-2017
</metadata>
<g transform="translate(0.000000,700.000000) scale(0.100000,-0.100000)"
fill="#000000" stroke="none">
<path d="M124 6975 c-33 -16 -63 -42 -85 -73 l-34 -47 0 -3350 c0 -3175 1
-3352 18 -3382 22 -41 59 -78 100 -100 30 -17 209 -18 3367 -21 l3335 -2 52
25 c56 28 108 93 118 149 3 17 4 1525 3 3351 l-3 3320 -28 47 c-18 31 -44 57
-75 75 l-47 28 -3335 3 -3336 2 -50 -25z m2109 -2331 c558 -113 954 -636 915
-1209 -7 -108 -14 -158 -29 -220 -76 -297 -261 -554 -514 -712 -260 -163 -594
-211 -890 -128 -187 53 -349 148 -491 290 -301 299 -416 721 -309 1140 80 312
313 601 600 743 117 58 278 104 395 114 81 7 246 -2 323 -18z m1277 12 c371
-47 716 -296 889 -643 30 -60 80 -197 87 -238 40 -229 39 -371 -2 -551 -74
-322 -300 -607 -604 -762 -82 -42 -189 -82 -259 -97 -12 -3 -29 -7 -38 -9 -93
-20 -270 -27 -363 -14 -155 21 -247 48 -382 112 l-78 37 53 46 c208 181 348
422 411 705 21 96 28 342 13 443 -49 313 -207 597 -446 797 l-30 26 82 40
c202 99 438 137 667 108z m1365 0 c101 -13 251 -60 350 -108 294 -146 521
-419 609 -733 34 -122 38 -150 41 -295 5 -242 -57 -456 -192 -662 -142 -217
-360 -384 -609 -466 -123 -41 -218 -55 -364 -55 -190 0 -352 38 -518 121 l-72
37 32 28 c74 62 153 146 209 219 32 42 59 79 59 81 0 3 16 31 35 63 34 56 89
186 106 249 28 108 40 167 46 229 13 144 5 295 -22 408 -9 35 -18 72 -20 84
-9 40 -76 198 -112 262 -70 124 -206 286 -312 369 l-23 19 63 31 c154 74 197
88 369 117 76 12 234 13 325 2z"/>
<path d="M1791 4214 c-190 -63 -340 -193 -426 -368 -65 -131 -84 -215 -80
-356 4 -159 19 -219 88 -353 48 -95 173 -229 261 -281 60 -36 167 -80 221 -90
17 -4 41 -9 55 -11 33 -7 178 -7 210 -1 149 31 264 84 362 169 173 148 262
343 261 572 0 125 -4 154 -34 245 -27 83 -51 131 -105 206 -85 121 -209 213
-357 267 -73 26 -97 30 -217 33 -132 3 -137 3 -239 -32z"/>
</g>
</svg>
